<?xml version="1.0" standalone="no"?><!DOCTYPE svg PUBLIC "-//W3C//DTD SVG 1.1//EN" "http://www.w3.org/Graphics/SVG/1.1/DTD/svg11.dtd"><svg t="1593592439738" class="icon" viewBox="0 0 1024 1024" version="1.1" xmlns="http://www.w3.org/2000/svg" p-id="729" xmlns:xlink="http://www.w3.org/1999/xlink" width="200" height="200"><defs><style type="text/css"></style></defs><path d="M509.952 513.365333m-342.016 0a342.016 342.016 0 1 0 684.032 0 342.016 342.016 0 1 0-684.032 0Z" fill="#55BBF9" p-id="730"></path><path d="M470.357333 599.381333l-99.669333 26.624c-11.605333 2.730667-21.845333-7.509333-18.432-18.432l26.624-99.669333 91.477333 91.477333zM610.986667 320.170667l46.421333 46.421333c12.288 12.288 12.288 32.768 0 45.056L491.52 578.218667 400.042667 486.741333 566.613333 320.170667c12.288-12.288 32.085333-12.288 44.373334 0zM651.946667 708.608H367.274667c-8.192 0-15.701333-6.826667-15.701334-15.701333 0-8.192 6.826667-15.701333 15.701334-15.701334h284.672c8.192 0 15.701333 6.826667 15.701333 15.701334-0.682667 8.192-7.509333 15.701333-15.701333 15.701333z" fill="#FFFFFF" p-id="731"></path></svg>